<svg xmlns="http://www.w3.org/2000/svg" viewBox="0 0 300 300" width="300" height="300">
  <rect width="300" height="300" fill="white" rx="20"/>
  <rect x="20" y="20" width="60" height="60" fill="#0d9488" rx="8"/>
  <rect x="40" y="40" width="20" height="20" fill="white"/>
  <rect x="100" y="20" width="60" height="60" fill="#0d9488" rx="8"/>
  <rect x="120" y="40" width="20" height="20" fill="white"/>
  <rect x="220" y="20" width="60" height="60" fill="#0d9488" rx="8"/>
  <rect x="240" y="40" width="20" height="20" fill="white"/>
  <rect x="20" y="100" width="60" height="60" fill="#0d9488" rx="8"/>
  <rect x="40" y="120" width="20" height="20" fill="white"/>
  <rect x="100" y="100" width="20" height="20" fill="#0d9488"/>
  <rect x="160" y="100" width="20" height="20" fill="#0d9488"/>
  <rect x="220" y="100" width="20" height="20" fill="#0d9488"/>
  <rect x="260" y="100" width="20" height="20" fill="#0d9488"/>
  <rect x="20" y="140" width="20" height="20" fill="#0d9488"/>
  <rect x="80" y="140" width="60" height="20" fill="#0d9488"/>
  <rect x="180" y="140" width="40" height="20" fill="#0d9488"/>
  <rect x="260" y="140" width="20" height="20" fill="#0d9488"/>
  <rect x="40" y="180" width="20" height="20" fill="#0d9488"/>
  <rect x="100" y="180" width="40" height="60" fill="#0d9488"/>
  <rect x="180" y="180" width="60" height="20" fill="#0d9488"/>
  <rect x="20" y="220" width="60" height="60" fill="#0d9488" rx="8"/>
  <rect x="40" y="240" width="20" height="20" fill="white"/>
  <rect x="100" y="220" width="20" height="20" fill="#0d9488"/>
  <rect x="160" y="220" width="20" height="20" fill="#0d9488"/>
  <rect x="220" y="220" width="60" height="60" fill="#0d9488" rx="8"/>
  <rect x="240" y="240" width="20" height="20" fill="white"/>
  <text x="150" y="290" text-anchor="middle" font-family="Arial, sans-serif" font-size="12" fill="#888">YAPE SIMULADO</text>
</svg>
